<svg xmlns="http://www.w3.org/2000/svg" viewBox="0 0 402.37 48.05"><defs><style>.cls-1{fill:#ee3780;}.cls-2{fill:#f8bdcc;}</style></defs><title>salon-services-logo</title><g id="Layer_2" data-name="Layer 2"><g id="Layer_1-2" data-name="Layer 1"><path class="cls-1" d="M130.18,32.17a10.82,10.82,0,0,0,2.1,3.72,9.16,9.16,0,0,0,3.14,2.28,9.56,9.56,0,0,0,7.61,0,9.16,9.16,0,0,0,3.14-2.28,10.66,10.66,0,0,0,2.1-3.72,15.6,15.6,0,0,0,.77-5.09,15.58,15.58,0,0,0-.77-5.08,10.8,10.8,0,0,0-2.1-3.75A8.89,8.89,0,0,0,143,15.93a9.56,9.56,0,0,0-7.61,0,8.89,8.89,0,0,0-3.14,2.32,11,11,0,0,0-2.1,3.75,15.59,15.59,0,0,0-.76,5.08,15.61,15.61,0,0,0,.76,5.09M124.91,20.6a14.59,14.59,0,0,1,2.92-5.24,13.68,13.68,0,0,1,4.82-3.51,17.63,17.63,0,0,1,13.19,0,13.71,13.71,0,0,1,4.78,3.51,14.59,14.59,0,0,1,2.92,5.24,20.94,20.94,0,0,1,1,6.48,20.68,20.68,0,0,1-1,6.46,14.71,14.71,0,0,1-2.92,5.21,13.49,13.49,0,0,1-4.78,3.47,18,18,0,0,1-13.19,0,13.46,13.46,0,0,1-4.82-3.47,14.71,14.71,0,0,1-2.92-5.21,20.68,20.68,0,0,1-1-6.46,20.94,20.94,0,0,1,1-6.48"/><path class="cls-1" d="M161.83,12v5H162q3.24-5.73,10.24-5.73a13.89,13.89,0,0,1,5.18.85,8.33,8.33,0,0,1,5.14,6,19.35,19.35,0,0,1,.52,4.67V43.5h-5.17V22.18a6.29,6.29,0,0,0-1.71-4.63,6.35,6.35,0,0,0-4.69-1.71,10.72,10.72,0,0,0-4.12.73,7.81,7.81,0,0,0-2.89,2.07,9.08,9.08,0,0,0-1.74,3.14,13,13,0,0,0-.58,3.93V43.5H157V12Z"/><rect class="cls-1" x="115.77" width="5.18" height="43.5"/><path class="cls-1" d="M107.1,30.37c0,5.18-5.66,8.76-12.39,8.76-4.35,0-7.26-2-7.26-5,0-3.28,2.44-4.53,7.08-5.12l6.73-.84c3.34-.41,4.95-.83,5.84-1.84ZM73.55,24.7l-6.79-.86a14.77,14.77,0,0,1-2.68-.53,3.52,3.52,0,0,1-2.49-2.22,3.17,3.17,0,0,1-.24-1.43l0-.42.06-.29c1-4.69,7.3-4.56,10.39-4.3s8.17,2.23,10.89,6a9.69,9.69,0,0,1,1.39,2.74,9.72,9.72,0,0,1,1.4-2.74c2.71-3.77,7.82-5.74,10.88-6s9.41-.39,10.39,4.3l.06.29,0,.42a3.17,3.17,0,0,1-.24,1.43,3.52,3.52,0,0,1-2.48,2.22,15.06,15.06,0,0,1-2.69.53l-6.78.86c-5.34.68-8.5,2-10.58,4.11-2.07-2.12-5.23-3.43-10.57-4.11m24.8-14.29C90.92,10.41,86,12.33,83.92,17c-2-3.92-6.39-6.61-14.09-6.61-8.76,0-14.24,3.76-14.24,10.07,0,4.82,4,7.68,8.46,8.28l9.83,1.31c4.76.65,5.9,2,5.9,4.17s-1.85,4.89-9.53,4.89-9.83-3.46-9.83-6.26h-6c.66,9.05,8.82,10.9,16,10.9,5.76,0,10.27-1.24,13-3.82,1.77,2.16,5,3.82,10.81,3.82,5.06,0,10.9-1.85,13.28-5.06V43.5h5.24V19.29c0-7.27-8-8.88-14.35-8.88"/><path class="cls-1" d="M5.48,39A24.36,24.36,0,0,0,8,39.08a17.58,17.58,0,0,0,5.48-.85A6.25,6.25,0,0,0,15.71,37a3.73,3.73,0,0,0,1.21-3.4,3.33,3.33,0,0,0-2.6-2.77,13.78,13.78,0,0,0-3.05-.7c-1.1-.13-2.2-.29-3.31-.43l-3.21-.44c-1-.14-2-.32-3-.42A14.36,14.36,0,0,1,0,28.54v8.65a8,8,0,0,0,2.28,1.16,12.51,12.51,0,0,0,3.2.62"/><path class="cls-1" d="M36.64,14.56a14,14,0,0,0-2,.06,23.25,23.25,0,0,0-2.51.31A16.2,16.2,0,0,0,26.89,17a12.36,12.36,0,0,0-3.42,2.81,17,17,0,0,0-1.38,2,13.24,13.24,0,0,0-.76,1.61c-.16-.4-.29-.79-.47-1.16A11.29,11.29,0,0,0,18.46,19,15.32,15.32,0,0,0,15,16.54a19.27,19.27,0,0,0-3.29-1.35,15.09,15.09,0,0,0-4.16-.63,26.86,26.86,0,0,0-2.84.12,13.57,13.57,0,0,0-2,.38A5.83,5.83,0,0,0,.2,16.34l-.2.2v6.07a6.41,6.41,0,0,0,2.6,1c.64.12,1.29.18,1.93.27l1.7.23c.57.07,1.14.12,1.71.2s1.17.16,1.75.24,1.12.11,1.68.2c.89.14,1.78.31,2.66.49a17.48,17.48,0,0,1,3.86,1.21,11,11,0,0,1,3.48,2.35c.19-.2.35-.4.54-.57A13.11,13.11,0,0,1,26,25.94a30.88,30.88,0,0,1,5.85-1.29c.9-.13,1.8-.21,2.71-.32,1.07-.14,2.14-.28,3.21-.44s2.09-.3,3.13-.5A4.92,4.92,0,0,0,42,23.06V16a5.11,5.11,0,0,0-.6-.38,11.39,11.39,0,0,0-4.73-1"/><path class="cls-1" d="M3.78,10.56a24.31,24.31,0,0,1,4.67-.17,16.73,16.73,0,0,1,3.79.47,28.94,28.94,0,0,1,2.89.84,11.83,11.83,0,0,1,3.51,2.06,10.8,10.8,0,0,1,2.48,3.1c.31-.51.6-1,.93-1.51a9.41,9.41,0,0,1,3.19-2.89,14.67,14.67,0,0,1,4.85-1.65c.79-.13,1.6-.25,2.4-.3,1.35-.08,2.7-.14,4-.12,1.05,0,2.09.14,3.13.23A16,16,0,0,1,42,11V6.08H0v5.29q.68-.22,1.38-.39c.79-.18,1.6-.29,2.4-.42"/><path class="cls-1" d="M35.72,43.38a20.83,20.83,0,0,1-2.62.32,29.44,29.44,0,0,1-3,.06A18.26,18.26,0,0,1,25.49,43a10.68,10.68,0,0,1-3-1.38,13.12,13.12,0,0,1-1.24-1,7.83,7.83,0,0,1-.58-.61c-.75.51-1.44,1-2.17,1.46a11.38,11.38,0,0,1-3,1.26c-.83.23-1.67.42-2.52.6-.53.11-1.07.14-1.61.21a34.1,34.1,0,0,1-5.35.18c-.88,0-1.77-.15-2.66-.24A17.77,17.77,0,0,1,0,42.81v5.24H42v-7c-.85.47-1.72.89-2.6,1.28a16.72,16.72,0,0,1-3.65,1.05"/><path class="cls-1" d="M36.94,28.44,34,28.81c-1.13.15-2.27.28-3.4.45a10.62,10.62,0,0,0-3.84,1.2,4,4,0,0,0-1.35,1.21,4.42,4.42,0,0,0-.68,2,3.88,3.88,0,0,0,.38,2.28,5.05,5.05,0,0,0,2.77,2.43,11.16,11.16,0,0,0,4.28.74A9.24,9.24,0,0,0,33.21,39c.31,0,.62,0,.92-.06a18.21,18.21,0,0,0,3.64-.87A11.73,11.73,0,0,0,42,35.52V27.65a11.39,11.39,0,0,1-1.19.24l-3.84.55"/><path class="cls-2" d="M212.19,26.9a11.87,11.87,0,0,0-3.26-1.64,36.6,36.6,0,0,0-3.72-1c-1.3-.28-2.56-.55-3.78-.79a23.05,23.05,0,0,1-3.26-.89,7,7,0,0,1-2.31-1.3,2.66,2.66,0,0,1-.89-2.08,2.33,2.33,0,0,1,.61-1.67,4.07,4.07,0,0,1,1.5-1,8.2,8.2,0,0,1,1.88-.45,15.37,15.37,0,0,1,1.74-.13,9.41,9.41,0,0,1,4.11.86,4.33,4.33,0,0,1,2.29,3.35h7.25a10.42,10.42,0,0,0-1.49-4.48,9.76,9.76,0,0,0-3-3,12.41,12.41,0,0,0-4-1.68,20.8,20.8,0,0,0-4.66-.52,24.56,24.56,0,0,0-4.48.43,13.71,13.71,0,0,0-4.26,1.49,9.51,9.51,0,0,0-3.17,2.8,7.19,7.19,0,0,0-1.25,4.3,8.47,8.47,0,0,0,.85,4,7.54,7.54,0,0,0,2.29,2.65,11.83,11.83,0,0,0,3.23,1.64,32.49,32.49,0,0,0,3.74,1c1.26.28,2.5.55,3.72.79a21.46,21.46,0,0,1,3.26.89,6.67,6.67,0,0,1,2.34,1.37,3.05,3.05,0,0,1,1,2.19,3,3,0,0,1-.64,2.16,4.39,4.39,0,0,1-1.8,1.25,9.33,9.33,0,0,1-2.34.58,19.07,19.07,0,0,1-2.23.15A9.12,9.12,0,0,1,196.62,37a5.28,5.28,0,0,1-2.32-4.27h-6.94a10.7,10.7,0,0,0,1.13,4.84A9.81,9.81,0,0,0,191.41,41a13,13,0,0,0,4.39,2,21.72,21.72,0,0,0,5.51.67,23.44,23.44,0,0,0,4.94-.55,15.45,15.45,0,0,0,4.54-1.77,10.17,10.17,0,0,0,3.32-3.17,8.49,8.49,0,0,0,1.28-4.75,7.92,7.92,0,0,0-.89-3.9A8.1,8.1,0,0,0,212.19,26.9Z"/><path class="cls-2" d="M243.23,16.12A14.68,14.68,0,0,0,238.32,12a14.17,14.17,0,0,0-6.67-1.55,14.34,14.34,0,0,0-11.12,5,16.39,16.39,0,0,0-3,5.31,19,19,0,0,0-1.07,6.36,21.08,21.08,0,0,0,1,6.71,14.39,14.39,0,0,0,3,5.24,13.61,13.61,0,0,0,4.85,3.41,16.68,16.68,0,0,0,6.58,1.22,17.27,17.27,0,0,0,4.9-.7A14.12,14.12,0,0,0,241,40.89a13.21,13.21,0,0,0,3.23-3.39,12.84,12.84,0,0,0,1.89-4.57h-6.58a7.71,7.71,0,0,1-2.77,3.93,8.28,8.28,0,0,1-4.9,1.31,8.58,8.58,0,0,1-3.78-.76,7.51,7.51,0,0,1-2.62-2,8.83,8.83,0,0,1-1.56-3,12.32,12.32,0,0,1-.51-3.54h23.15a18.06,18.06,0,0,0-.46-6.85A16.56,16.56,0,0,0,243.23,16.12Zm-19.86,8.16a9.17,9.17,0,0,1,.7-3.29,8.66,8.66,0,0,1,1.7-2.65,7.72,7.72,0,0,1,2.56-1.77,8.47,8.47,0,0,1,3.32-.64,7.13,7.13,0,0,1,3.2.71,7.8,7.8,0,0,1,2.44,1.82,8.48,8.48,0,0,1,1.58,2.65,11,11,0,0,1,.7,3.17Z"/><path class="cls-2" d="M264.92,11.15a8.24,8.24,0,0,0-3.11.61A10.74,10.74,0,0,0,259,13.37a11.47,11.47,0,0,0-2.13,2.23,6.9,6.9,0,0,0-1.19,2.5h-.12V12h-6.52V43.5H256v-15a14.57,14.57,0,0,1,.67-4.63,10.3,10.3,0,0,1,1.83-3.38,7.64,7.64,0,0,1,2.71-2.07,8.1,8.1,0,0,1,3.32-.7,12.54,12.54,0,0,1,1.49.09c.51.06,1,.13,1.5.22V11.33l-1-.12A15.15,15.15,0,0,0,264.92,11.15Z"/><polygon class="cls-2" points="284.29 36.19 284.17 36.19 276.19 12 268.64 12 280.09 43.5 287.89 43.5 299.16 12 291.97 12 284.29 36.19"/><rect class="cls-2" x="301.11" y="12" width="6.95" height="31.5"/><rect class="cls-2" x="301.11" width="6.95" height="6.58"/><path class="cls-2" d="M320.67,18.1a6.9,6.9,0,0,1,2.8-1.71,10.15,10.15,0,0,1,2.86-.45,7.62,7.62,0,0,1,4.85,1.49,6.46,6.46,0,0,1,2.34,4.41h7A12.06,12.06,0,0,0,339,16.79a11.28,11.28,0,0,0-3.14-3.54,13.84,13.84,0,0,0-4.39-2.1,18.84,18.84,0,0,0-5.21-.7,16.38,16.38,0,0,0-6.79,1.31,13.59,13.59,0,0,0-4.84,3.6,15,15,0,0,0-2.93,5.39,22,22,0,0,0-1,6.64,20.15,20.15,0,0,0,1,6.46,14.57,14.57,0,0,0,3,5.15,14,14,0,0,0,4.78,3.41A16.15,16.15,0,0,0,326,43.66q6.09,0,9.78-3.26c2.46-2.18,4-5.31,4.66-9.42h-7a8.76,8.76,0,0,1-2.46,5.31,7,7,0,0,1-5,1.88,7.39,7.39,0,0,1-3.84-.94,7.85,7.85,0,0,1-2.59-2.47,10.5,10.5,0,0,1-1.46-3.47,16.75,16.75,0,0,1-.46-3.9,16.47,16.47,0,0,1,.86-5.82A9.47,9.47,0,0,1,320.67,18.1Z"/><path class="cls-2" d="M369,16.12a14.65,14.65,0,0,0-4.9-4.12,14.2,14.2,0,0,0-6.67-1.55,14.3,14.3,0,0,0-11.12,5,16.42,16.42,0,0,0-3.05,5.31,19,19,0,0,0-1.06,6.36,21.37,21.37,0,0,0,1,6.71,14.54,14.54,0,0,0,3,5.24A13.7,13.7,0,0,0,351,42.44a16.71,16.71,0,0,0,6.58,1.22,17.27,17.27,0,0,0,4.9-.7,14.06,14.06,0,0,0,4.24-2.07A13.38,13.38,0,0,0,370,37.5a13.22,13.22,0,0,0,1.89-4.57h-6.58a7.72,7.72,0,0,1-2.78,3.93,8.28,8.28,0,0,1-4.9,1.31,8.64,8.64,0,0,1-3.78-.76,7.6,7.6,0,0,1-2.62-2,8.63,8.63,0,0,1-1.55-3,12,12,0,0,1-.52-3.54h23.15a17.86,17.86,0,0,0-.46-6.85A16.39,16.39,0,0,0,369,16.12Zm-19.86,8.16a9.17,9.17,0,0,1,.7-3.29,8.69,8.69,0,0,1,1.71-2.65,7.62,7.62,0,0,1,2.56-1.77,8.43,8.43,0,0,1,3.32-.64,7.19,7.19,0,0,1,3.2.71A7.76,7.76,0,0,1,363,18.46a8.7,8.7,0,0,1,1.59,2.65,11.38,11.38,0,0,1,.7,3.17Z"/><path class="cls-2" d="M401.49,29.52a8,8,0,0,0-2.32-2.62,11.73,11.73,0,0,0-3.26-1.64,36.42,36.42,0,0,0-3.71-1c-1.3-.28-2.56-.55-3.78-.79a22.69,22.69,0,0,1-3.26-.89,7,7,0,0,1-2.32-1.3,2.65,2.65,0,0,1-.88-2.08,2.29,2.29,0,0,1,.61-1.67,4,4,0,0,1,1.49-1,8.16,8.16,0,0,1,1.89-.45,15.21,15.21,0,0,1,1.74-.13,9.47,9.47,0,0,1,4.11.86,4.3,4.3,0,0,1,2.28,3.35h7.25a10.29,10.29,0,0,0-1.49-4.48,9.62,9.62,0,0,0-3-3,12.41,12.41,0,0,0-4-1.68,20.89,20.89,0,0,0-4.67-.52,24.45,24.45,0,0,0-4.47.43,13.68,13.68,0,0,0-4.27,1.49,9.6,9.6,0,0,0-3.17,2.8,7.19,7.19,0,0,0-1.25,4.3,8.47,8.47,0,0,0,.86,4,7.61,7.61,0,0,0,2.28,2.65,12,12,0,0,0,3.23,1.64,33.24,33.24,0,0,0,3.75,1c1.26.28,2.5.55,3.71.79a21.46,21.46,0,0,1,3.26.89,6.63,6.63,0,0,1,2.35,1.37,3.05,3.05,0,0,1,1,2.19,3,3,0,0,1-.64,2.16,4.39,4.39,0,0,1-1.8,1.25,9.41,9.41,0,0,1-2.35.58,18.77,18.77,0,0,1-2.22.15A9.18,9.18,0,0,1,383.6,37a5.24,5.24,0,0,1-2.31-4.27h-7a10.83,10.83,0,0,0,1.13,4.84A9.94,9.94,0,0,0,378.4,41a13,13,0,0,0,4.38,2,21.86,21.86,0,0,0,5.52.67,23.28,23.28,0,0,0,4.93-.55,15.24,15.24,0,0,0,4.54-1.77,10.07,10.07,0,0,0,3.32-3.17,8.49,8.49,0,0,0,1.28-4.75A8,8,0,0,0,401.49,29.52Z"/></g></g></svg>