<svg xmlns="http://www.w3.org/2000/svg" viewBox="0 0 39.53 25"><defs><style>.cls-1{fill:#fff;}.cls-2{fill:#7673c0;}.cls-3{fill:#eb001b;}.cls-4{fill:#00a1df;}</style></defs><title>maestro</title><g id="Layer_2" data-name="Layer 2"><g id="Layer_1-2" data-name="Layer 1"><polygon points="39.53 25 0 25 0 0 39.53 0 39.53 25 39.53 25"/><path class="cls-1" d="M29.19,22.74v.06h.08s0,0,0,0v0h-.08Zm0,0a.08.08,0,0,1,.06,0,.08.08,0,0,1,0,.05,0,0,0,0,1,0,0l0,0,.06.08h-.05l-.06-.08h0v.08h-.05V22.7Zm0,.28h.06l.06,0s0,0,0-.06a.14.14,0,0,0,0-.06.14.14,0,0,0,0-.07s0,0,0-.06l-.06,0-.06,0-.07,0s0,0-.06,0l0,.06s0,0,0,.07,0,0,0,.06l0,.06.06,0Zm0-.4.08,0,.08,0,.05.07a.25.25,0,0,1,0,.09.19.19,0,0,1,0,.08l-.05.07-.08.05-.08,0-.09,0L29.06,23a.16.16,0,0,1,0-.07.11.11,0,0,1,0-.08.13.13,0,0,1,0-.09.16.16,0,0,1,0-.07l.08,0,.09,0Zm-3.38-2a1.12,1.12,0,0,1,.35.06l-.15.46a.87.87,0,0,0-.31-.05c-.32,0-.48.2-.48.57v1.26h-.49V20.67h.49v.27a.65.65,0,0,1,.59-.33Zm-1.69.5h-.8v1c0,.22.08.37.33.37a1,1,0,0,0,.43-.12l.14.41a1.15,1.15,0,0,1-.61.18c-.58,0-.78-.31-.78-.83v-1h-.45v-.44h.45V20h.49v.68h.8v.44Zm-2.34.13a1.54,1.54,0,0,0-.7-.19c-.27,0-.43.1-.43.26s.17.19.38.22l.23,0c.49.07.78.28.78.67s-.37.74-1,.74a1.68,1.68,0,0,1-1-.29l.23-.38a1.24,1.24,0,0,0,.75.23c.33,0,.51-.1.51-.27s-.13-.2-.4-.24L21,22c-.5-.07-.77-.29-.77-.66s.37-.72.93-.72a1.66,1.66,0,0,1,.92.24l-.21.39Zm-3.73.35a.58.58,0,0,1,.6-.54.57.57,0,0,1,.57.54Zm1.67.2a1.07,1.07,0,0,0-1.06-1.18,1.1,1.1,0,0,0-1.12,1.18A1.11,1.11,0,0,0,18.73,23a1.36,1.36,0,0,0,.92-.32l-.24-.36a1.09,1.09,0,0,1-.65.24.62.62,0,0,1-.67-.55h1.66a1.21,1.21,0,0,0,0-.19Zm7.79-.72a.82.82,0,0,0-.28.05.91.91,0,0,0-.23.15.59.59,0,0,0-.14.23.79.79,0,0,0,.14.81.91.91,0,0,0,.23.15.82.82,0,0,0,.28.05.76.76,0,0,0,.27-.05.67.67,0,0,0,.38-.38.87.87,0,0,0,0-.58.76.76,0,0,0-.15-.23.91.91,0,0,0-.23-.15.76.76,0,0,0-.27-.05Zm0-.46a1.28,1.28,0,0,1,.48.09,1.19,1.19,0,0,1,.38.25,1.05,1.05,0,0,1,.25.37,1.19,1.19,0,0,1,.09.47,1.23,1.23,0,0,1-.09.47,1.05,1.05,0,0,1-.25.37,1.19,1.19,0,0,1-.38.25,1.28,1.28,0,0,1-.48.09,1.3,1.3,0,0,1-.49-.09,1.19,1.19,0,0,1-.38-.25,1.21,1.21,0,0,1-.25-.37,1.23,1.23,0,0,1-.09-.47,1.19,1.19,0,0,1,.09-.47,1.21,1.21,0,0,1,.25-.37,1.19,1.19,0,0,1,.38-.25,1.3,1.3,0,0,1,.49-.09ZM15.29,21.79a.68.68,0,1,1,.68.72.68.68,0,0,1-.68-.72Zm1.82,0V20.67h-.49v.27a.87.87,0,0,0-.71-.33,1.18,1.18,0,0,0,0,2.36.87.87,0,0,0,.71-.33v.27h.49V21.79Zm-2.75,1.12V21.5a.84.84,0,0,0-.88-.89.89.89,0,0,0-.79.4.83.83,0,0,0-.74-.4.75.75,0,0,0-.66.33v-.27H10.8v2.24h.5V21.67c0-.39.21-.6.54-.6s.49.21.49.59v1.25h.49V21.67a.53.53,0,0,1,.55-.6c.34,0,.5.21.5.59v1.25Z" transform="translate(0 0)"/><polygon class="cls-2" points="23.47 16.85 16.07 16.85 16.07 3.56 23.47 3.56 23.47 16.85 23.47 16.85"/><path class="cls-3" d="M16.54,10.2a8.41,8.41,0,0,1,3.23-6.64,8.46,8.46,0,1,0,0,13.29,8.43,8.43,0,0,1-3.23-6.65Z" transform="translate(0 0)"/><path class="cls-4" d="M33.18,15.44v-.33H33.1l-.1.23-.1-.23h-.08v.33h.06V15.2l.09.21H33l.09-.22v.25Zm-.54,0v-.27h.11v-.05h-.28v.05h.11v.27Z" transform="translate(0 0)"/><path class="cls-4" d="M33.45,10.2a8.45,8.45,0,0,1-13.68,6.65,8.45,8.45,0,0,0,0-13.29A8.37,8.37,0,0,1,25,1.75a8.45,8.45,0,0,1,8.46,8.45Z" transform="translate(0 0)"/></g></g></svg>