<svg xmlns="http://www.w3.org/2000/svg" viewBox="0 0 32 26.25"><defs><style>.cls-1{fill:none;}.cls-2{fill:#231f20;}.cls-3{fill:#ff5f00;}.cls-4{fill:#eb001b;}.cls-5{fill:#f79e1b;}</style></defs><title>mastercard</title><g id="Layer_2" data-name="Layer 2"><g id="Layer_1-2" data-name="Layer 1"><g id="Layer_1-2-2" data-name="Layer 1-2"><rect class="cls-1" width="32" height="26.25"/><path class="cls-2" d="M7.92,22.94v-1.3a.77.77,0,0,0-.72-.83H7.1a.8.8,0,0,0-.73.37.77.77,0,0,0-.69-.37.69.69,0,0,0-.61.31v-.26H4.62v2.08h.46V21.8a.48.48,0,0,1,.41-.55h.1c.3,0,.45.2.45.55V23H6.5V21.8a.48.48,0,0,1,.42-.55H7c.31,0,.46.2.46.55V23Zm6.78-2.08H14v-.63h-.46v.63h-.41v.42h.42v.95c0,.49.19.78.73.78a1,1,0,0,0,.56-.17l-.13-.38a.8.8,0,0,1-.4.11c-.22,0-.3-.14-.3-.34v-.95h.74Zm3.86-.05a.63.63,0,0,0-.55.3v-.25h-.44v2.08H18V21.78c0-.35.15-.54.43-.54a.93.93,0,0,1,.29.05l.14-.43a1,1,0,0,0-.33-.06ZM12.72,21a1.5,1.5,0,0,0-.85-.22c-.53,0-.87.25-.87.67s.25.55.71.61l.22,0c.25,0,.37.1.37.22s-.17.25-.48.25a1.07,1.07,0,0,1-.69-.22l-.22.36a1.54,1.54,0,0,0,.9.27c.61,0,1-.29,1-.68s-.28-.56-.73-.63l-.22,0c-.2,0-.35-.06-.35-.2s.14-.25.39-.25a1.51,1.51,0,0,1,.66.18Zm12.14-.22a.63.63,0,0,0-.55.3v-.25h-.45v2.08h.46V21.78c0-.35.14-.54.43-.54a.93.93,0,0,1,.29.05l.13-.43a.87.87,0,0,0-.32-.06ZM19,21.9A1.05,1.05,0,0,0,20,23h.1a1.13,1.13,0,0,0,.75-.25l-.22-.37a.89.89,0,0,1-.54.19.67.67,0,0,1,0-1.33.94.94,0,0,1,.54.18l.22-.36a1.08,1.08,0,0,0-.75-.25,1.05,1.05,0,0,0-1.11,1v.1Zm4.25,0v-1h-.46v.25a.78.78,0,0,0-.65-.3,1.09,1.09,0,0,0,0,2.18.79.79,0,0,0,.65-.31v.26h.46Zm-1.69,0a.63.63,0,0,1,.66-.59.63.63,0,0,1,.6.66.65.65,0,0,1-.63.6.63.63,0,0,1-.63-.62Zm-5.47-1.09a1.09,1.09,0,1,0,0,2.18h0a1.33,1.33,0,0,0,.86-.28l-.22-.34a1,1,0,0,1-.6.22.58.58,0,0,1-.62-.51H17.1V21.9a1,1,0,0,0-1-1.09Zm0,.4a.51.51,0,0,1,.52.51H15.54a.55.55,0,0,1,.56-.51Zm11.36.69V20H27v1.09a.79.79,0,0,0-.65-.3,1.09,1.09,0,0,0,0,2.18.8.8,0,0,0,.65-.31v.26h.44Zm.75.74.09,0,.06,0a.18.18,0,0,1,.05.07.22.22,0,0,1,0,.16l-.05.06-.06.05h-.09a.21.21,0,0,1-.19-.12.15.15,0,0,1,0-.16.16.16,0,0,1,0-.07l.07,0,.09,0Zm0,.37h.07l.05,0a.18.18,0,0,0,0-.22l-.05,0h-.13l-.05,0a.16.16,0,0,0,0,.22.1.1,0,0,0,.05,0h.06Zm0-.26.05,0a0,0,0,0,1,0,0s0,0,0,0l-.05,0,.06.07h0l-.06-.07h0v.07h-.05v-.19Zm0,0v.05h.07v0h-.07Zm-2.4-.89a.63.63,0,1,1,.63.67.63.63,0,0,1-.63-.62Zm-15.31,0v-1H10v.25a.8.8,0,0,0-.66-.3,1.09,1.09,0,0,0,0,2.18.81.81,0,0,0,.66-.31v.26h.45Zm-1.69,0a.64.64,0,0,1,.67-.59.63.63,0,0,1,0,1.26A.62.62,0,0,1,8.79,22V21.9Z"/><g id="_Group_" data-name=" Group "><rect class="cls-3" x="12.57" y="4.98" width="6.87" height="12.34"/><path id="_Path_" data-name=" Path " class="cls-4" d="M13,11.15A7.86,7.86,0,0,1,16,5a7.85,7.85,0,1,0,0,12.34A7.86,7.86,0,0,1,13,11.15Z"/><path class="cls-5" d="M28.7,11.15A7.85,7.85,0,0,1,16,17.32a7.84,7.84,0,0,0,1.32-11A8.24,8.24,0,0,0,16,5a7.85,7.85,0,0,1,12.7,6.17Z"/><path class="cls-5" d="M28,16v-.25h.1v0h-.26v0h.11V16Zm.5,0v-.3h-.08l-.09.22-.09-.22h-.07V16h.06v-.23l.08.2h.06l.09-.2V16Z"/></g></g></g></g></svg>